<svg xmlns="http://www.w3.org/2000/svg" xmlns:xlink="http://www.w3.org/1999/xlink" width="500" zoomAndPan="magnify" viewBox="0 0 375 374.999991" height="500" preserveAspectRatio="xMidYMid meet" version="1.0"><defs><g/><clipPath id="7fb895c562"><path d="M 47.253906 112 L 141 112 L 141 192 L 47.253906 192 Z M 47.253906 112 " clip-rule="nonzero"/></clipPath><clipPath id="549fa98e95"><path d="M 126 59 L 327.441406 59 L 327.441406 212 L 126 212 Z M 126 59 " clip-rule="nonzero"/></clipPath></defs><path fill="#ffffff" d="M 110.984375 183.671875 L 122.109375 200.722656 L 121.320312 190.570312 L 116.46875 184.4375 L 110.957031 183.671875 Z M 61.582031 176.878906 L 72.707031 193.929688 L 71.917969 183.777344 L 67.09375 177.640625 Z M 71.460938 178.226562 L 82.585938 195.277344 L 81.800781 185.125 L 76.972656 178.992188 Z M 81.339844 179.578125 L 92.46875 196.625 L 91.679688 186.472656 L 86.851562 180.339844 Z M 91.222656 180.925781 L 102.347656 197.976562 L 101.558594 187.820312 L 96.734375 181.6875 Z M 101.101562 182.273438 L 112.226562 199.324219 L 111.441406 189.171875 L 106.589844 183.039062 L 101.078125 182.273438 Z M 101.101562 182.273438 " fill-opacity="1" fill-rule="evenodd"/><g clip-path="url(#7fb895c562)"><path fill="#a6a6a6" d="M 120.179688 182.988281 C 108.238281 155.042969 112.8125 136.085938 133.207031 123.207031 Z M 138.871094 119.976562 C 139.304688 119.746094 139.761719 119.519531 140.21875 119.289062 Z M 140.21875 119.289062 L 87.539062 112.0625 C 48.371094 119.214844 37.753906 139.902344 55.714844 174.15625 L 62.417969 182.503906 L 64.679688 182.808594 L 60.3125 176.089844 L 67.421875 177.082031 L 72.527344 183.570312 L 72.554688 183.902344 L 74.558594 184.183594 L 70.191406 177.464844 L 77.304688 178.457031 L 82.410156 184.945312 L 82.433594 185.277344 L 84.441406 185.558594 L 80.070312 178.839844 L 87.183594 179.832031 L 92.289062 186.320312 L 92.316406 186.652344 L 94.320312 186.929688 L 89.953125 180.210938 L 97.0625 181.207031 L 102.167969 187.695312 L 102.195312 188.023438 L 104.203125 188.304688 L 99.832031 181.585938 L 106.96875 182.578125 L 112.074219 189.070312 L 112.101562 189.398438 L 114.109375 189.679688 L 109.714844 182.960938 L 116.851562 183.953125 L 121.957031 190.441406 L 121.980469 190.773438 L 125.640625 191.28125 L 125.945312 176.242188 L 140.269531 119.417969 Z M 57.464844 136.746094 L 102.878906 142.980469 C 104.835938 143.261719 106.234375 145.09375 105.980469 147.078125 C 105.699219 149.0625 103.871094 150.464844 101.890625 150.183594 L 56.476562 143.949219 C 54.496094 143.667969 53.121094 141.835938 53.375 139.851562 C 53.65625 137.867188 55.484375 136.46875 57.464844 136.746094 Z M 59.015625 150.183594 L 104.40625 156.417969 C 106.386719 156.699219 107.757812 158.53125 107.503906 160.492188 C 107.25 162.476562 105.394531 163.875 103.414062 163.59375 L 58.023438 157.359375 C 56.042969 157.082031 54.648438 155.246094 54.925781 153.261719 C 55.207031 151.277344 57.035156 149.902344 59.015625 150.160156 Z M 60.566406 163.621094 L 105.980469 169.855469 C 107.960938 170.136719 109.332031 171.96875 109.078125 173.953125 C 108.800781 175.9375 106.96875 177.335938 104.988281 177.058594 L 59.574219 170.824219 C 57.59375 170.542969 56.195312 168.710938 56.476562 166.726562 C 56.753906 164.738281 58.582031 163.367188 60.566406 163.621094 Z M 60.566406 163.621094 " fill-opacity="1" fill-rule="evenodd"/></g><path fill="#ffffff" d="M 125.410156 87.785156 L 128.8125 94.859375 L 120.128906 101.375 Z M 174.738281 58.316406 L 160.917969 57.09375 L 119.847656 83.433594 L 111.035156 83.558594 L 90.027344 108.398438 L 123.226562 112.46875 L 174.738281 58.289062 Z M 111.441406 90.355469 L 118.347656 90.480469 L 111.035156 104.476562 L 102.21875 103.382812 Z M 111.441406 90.355469 " fill-opacity="1" fill-rule="evenodd"/><g clip-path="url(#549fa98e95)"><path fill="#ffffff" d="M 229.472656 128.550781 L 225.460938 128.550781 L 217.535156 127.839844 L 205.34375 93.890625 L 176.335938 59.792969 L 126.453125 112.621094 L 148.269531 111.65625 L 147.863281 107.582031 L 173.007812 89.667969 L 173.339844 91.421875 L 192.847656 123.894531 L 195.820312 154.714844 L 182.839844 170.136719 L 171.816406 211.285156 L 327.390625 211.972656 L 327.109375 173.238281 L 318.550781 162.957031 L 316.492188 117.40625 L 298.027344 101.652344 L 266.226562 102.671875 L 257.414062 154.304688 C 237.855469 155.09375 217.460938 154.738281 196.757812 154.738281 L 229.371094 154.738281 L 229.371094 128.550781 Z M 291.957031 157.132812 L 260.488281 157.132812 L 272.449219 108.472656 L 293.304688 109.160156 L 291.929688 157.132812 Z M 304.148438 157.867188 L 300.210938 154.101562 L 300.210938 111.832031 L 310.296875 120.054688 L 309.789062 167.640625 L 304.148438 172.78125 Z M 175.675781 70.808594 L 145.042969 100.28125 L 143.546875 98.777344 L 174.863281 66.867188 Z M 201.332031 91.550781 L 177.453125 77.605469 L 171.484375 81.675781 L 171.078125 78.953125 L 177.453125 71.878906 L 201.332031 91.523438 Z M 201.332031 91.550781 " fill-opacity="1" fill-rule="evenodd"/></g><g fill="#ffffff" fill-opacity="1"><g transform="translate(20.448876, 275.388146)"><g><path d="M 54.253906 -39.246094 L 54.253906 -9.753906 L 50.050781 -9.753906 L 50.050781 0 L 73.761719 0 L 73.761719 -9.753906 L 69.636719 -9.753906 L 69.636719 -42.773438 L 73.761719 -42.773438 L 73.761719 -52.453125 L 45.171875 -52.453125 L 37.96875 -24.386719 L 30.390625 -52.453125 L 1.949219 -52.453125 L 1.949219 -42.773438 L 5.929688 -42.773438 L 5.929688 -9.679688 L 1.875 -9.679688 L 1.875 0 L 22.210938 0 L 22.210938 -9.679688 L 17.933594 -9.679688 L 17.933594 -39.246094 L 18.234375 -39.246094 C 18.460938 -35.492188 19.433594 -31.214844 19.808594 -29.941406 L 28.214844 0 L 43.898438 0 L 51.777344 -29.191406 C 52.300781 -30.917969 53.351562 -35.867188 53.953125 -39.246094 Z M 54.253906 -39.246094 "/></g></g></g><g fill="#ffffff" fill-opacity="1"><g transform="translate(96.071799, 275.388146)"><g><path d="M 5.851562 -25.664062 C 8.703125 -27.238281 12.605469 -29.117188 17.035156 -29.117188 C 21.085938 -29.117188 24.164062 -28.289062 24.164062 -24.914062 L 24.164062 -22.285156 C 23.789062 -22.738281 21.160156 -24.914062 16.734375 -24.914062 C 8.253906 -24.914062 1.125 -19.585938 1.125 -11.105469 C 1.125 -2.402344 8.78125 1.425781 15.910156 1.425781 C 18.609375 1.425781 23.261719 0.449219 26.039062 -3.375 L 27.839844 0 L 43.898438 0 L 43.898438 -9.605469 L 39.394531 -9.605469 L 39.394531 -24.238281 C 39.394531 -36.320312 28.066406 -39.695312 19.058594 -39.695312 C 12.15625 -39.695312 5.703125 -36.167969 2.703125 -34.367188 Z M 24.164062 -10.804688 C 23.488281 -9.679688 21.609375 -8.328125 19.359375 -8.328125 C 17.109375 -8.328125 15.382812 -9.753906 15.382812 -11.855469 C 15.382812 -14.183594 16.734375 -15.832031 19.734375 -15.832031 C 22.886719 -15.832031 23.9375 -14.03125 24.164062 -13.65625 Z M 24.164062 -10.804688 "/></g></g></g><g fill="#ffffff" fill-opacity="1"><g transform="translate(141.085452, 275.388146)"><g><path d="M 24.988281 0 L 24.988281 -9.832031 L 19.585938 -9.832031 L 19.585938 -20.484375 C 19.585938 -23.710938 20.484375 -27.464844 24.3125 -27.464844 C 28.738281 -27.464844 28.515625 -23.035156 28.515625 -20.484375 L 28.515625 0 L 47.425781 0 L 47.425781 -9.832031 L 43.898438 -9.832031 L 43.898438 -22.363281 C 43.898438 -30.242188 41.945312 -38.871094 30.316406 -38.871094 C 25.589844 -38.871094 22.136719 -36.394531 19.585938 -32.867188 L 17.859375 -37.519531 L 1.875 -37.519531 L 1.875 -27.765625 L 5.027344 -27.765625 L 5.027344 -9.832031 L 1.875 -9.832031 L 1.875 0 Z M 24.988281 0 "/></g></g></g><g fill="#ffffff" fill-opacity="1"><g transform="translate(189.625175, 275.388146)"><g><path d="M 5.851562 -25.664062 C 8.703125 -27.238281 12.605469 -29.117188 17.035156 -29.117188 C 21.085938 -29.117188 24.164062 -28.289062 24.164062 -24.914062 L 24.164062 -22.285156 C 23.789062 -22.738281 21.160156 -24.914062 16.734375 -24.914062 C 8.253906 -24.914062 1.125 -19.585938 1.125 -11.105469 C 1.125 -2.402344 8.78125 1.425781 15.910156 1.425781 C 18.609375 1.425781 23.261719 0.449219 26.039062 -3.375 L 27.839844 0 L 43.898438 0 L 43.898438 -9.605469 L 39.394531 -9.605469 L 39.394531 -24.238281 C 39.394531 -36.320312 28.066406 -39.695312 19.058594 -39.695312 C 12.15625 -39.695312 5.703125 -36.167969 2.703125 -34.367188 Z M 24.164062 -10.804688 C 23.488281 -9.679688 21.609375 -8.328125 19.359375 -8.328125 C 17.109375 -8.328125 15.382812 -9.753906 15.382812 -11.855469 C 15.382812 -14.183594 16.734375 -15.832031 19.734375 -15.832031 C 22.886719 -15.832031 23.9375 -14.03125 24.164062 -13.65625 Z M 24.164062 -10.804688 "/></g></g></g><g fill="#ffffff" fill-opacity="1"><g transform="translate(234.638829, 275.388146)"><g><path d="M 8.554688 -48.476562 C 8.554688 -44.875 11.929688 -40.894531 16.660156 -40.894531 C 21.988281 -40.894531 24.914062 -44.347656 24.914062 -48.476562 C 24.914062 -51.925781 21.835938 -56.128906 16.660156 -56.128906 C 11.40625 -56.128906 8.554688 -51.925781 8.554688 -48.476562 Z M 9.605469 -27.765625 L 9.605469 -5.253906 C 9.605469 -1.652344 9.753906 5.628906 1.050781 5.628906 L 1.050781 15.683594 C 21.011719 15.683594 23.863281 4.050781 23.863281 -5.253906 L 23.863281 -37.519531 L 6.453125 -37.519531 L 6.453125 -27.765625 Z M 9.605469 -27.765625 "/></g></g></g><g fill="#ffffff" fill-opacity="1"><g transform="translate(261.64701, 275.388146)"><g><path d="M 3.976562 -48.476562 C 3.976562 -44.875 7.355469 -40.894531 12.082031 -40.894531 C 17.410156 -40.894531 20.335938 -44.347656 20.335938 -48.476562 C 20.335938 -51.925781 17.257812 -56.128906 12.082031 -56.128906 C 6.828125 -56.128906 3.976562 -51.925781 3.976562 -48.476562 Z M 22.886719 0 L 22.886719 -9.832031 L 19.285156 -9.832031 L 19.285156 -37.519531 L 1.875 -37.519531 L 1.875 -27.765625 L 5.027344 -27.765625 L 5.027344 -9.832031 L 1.875 -9.832031 L 1.875 0 Z M 22.886719 0 "/></g></g></g><g fill="#ffffff" fill-opacity="1"><g transform="translate(286.40451, 275.388146)"><g><path d="M 24.164062 0 L 24.164062 -9.832031 L 19.660156 -9.832031 L 19.660156 -23.1875 C 19.660156 -26.265625 20.636719 -27.691406 23.035156 -27.691406 C 26.039062 -27.691406 26.1875 -25.214844 26.1875 -19.136719 L 26.1875 0 L 45.625 0 L 45.625 -10.054688 L 41.121094 -10.054688 L 41.121094 -22.210938 C 41.121094 -25.4375 41.871094 -27.691406 45.097656 -27.691406 C 48.625 -27.691406 47.949219 -21.988281 47.949219 -18.382812 L 47.949219 0 L 67.011719 0 L 67.011719 -10.128906 L 63.332031 -10.128906 L 63.332031 -20.484375 C 63.332031 -29.640625 61.457031 -38.496094 49.300781 -38.496094 C 44.125 -38.496094 40.597656 -35.71875 38.269531 -33.09375 C 37.070312 -34.894531 34.667969 -38.496094 27.089844 -38.496094 C 22.363281 -38.496094 18.910156 -34.441406 17.710938 -33.015625 L 16.058594 -37.445312 L 1.875 -37.445312 L 1.875 -27.539062 L 5.027344 -27.539062 L 5.027344 -9.832031 L 1.875 -9.832031 L 1.875 0 Z M 24.164062 0 "/></g></g></g></svg>