<svg xmlns="http://www.w3.org/2000/svg" xmlns:xlink="http://www.w3.org/1999/xlink" width="500" zoomAndPan="magnify" viewBox="0 0 375 374.999991" height="500" preserveAspectRatio="xMidYMid meet" version="1.0"><defs><g/><clipPath id="8f2d080e13"><path d="M 115 243 L 375 243 L 375 260.59375 L 115 260.59375 Z M 115 243 " clip-rule="nonzero"/></clipPath><clipPath id="c687d4dd8f"><path d="M 14.308594 83 L 375 83 L 375 254 L 14.308594 254 Z M 14.308594 83 " clip-rule="nonzero"/></clipPath><clipPath id="4ba5f8cfb7"><path d="M 113.644531 242.425781 L 375 242.425781 L 375 267.460938 L 113.644531 267.460938 Z M 113.644531 242.425781 " clip-rule="nonzero"/></clipPath></defs><g clip-path="url(#8f2d080e13)"><path fill="#000000" d="M 390.480469 243.910156 L 386.171875 243.910156 L 386.171875 243.761719 C 386.171875 243.675781 386.109375 243.609375 386.027344 243.609375 L 384.816406 243.609375 C 384.734375 243.609375 384.667969 243.675781 384.667969 243.761719 L 384.667969 243.910156 L 380.371094 243.910156 L 380.371094 243.761719 C 380.371094 243.675781 380.304688 243.609375 380.222656 243.609375 L 379.011719 243.609375 C 378.929688 243.609375 378.863281 243.675781 378.863281 243.761719 L 378.863281 243.910156 L 374.566406 243.910156 L 374.566406 243.761719 C 374.566406 243.675781 374.503906 243.609375 374.417969 243.609375 L 373.207031 243.609375 C 373.128906 243.609375 373.058594 243.675781 373.058594 243.761719 L 373.058594 243.910156 L 368.761719 243.910156 L 368.761719 243.761719 C 368.761719 243.675781 368.695312 243.609375 368.613281 243.609375 L 367.402344 243.609375 C 367.320312 243.609375 367.253906 243.675781 367.253906 243.761719 L 367.253906 243.910156 L 362.957031 243.910156 L 362.957031 243.761719 C 362.957031 243.675781 362.890625 243.609375 362.808594 243.609375 L 361.597656 243.609375 C 361.515625 243.609375 361.449219 243.675781 361.449219 243.761719 L 361.449219 243.910156 L 357.152344 243.910156 L 357.152344 243.761719 C 357.152344 243.675781 357.085938 243.609375 357.003906 243.609375 L 355.792969 243.609375 C 355.710938 243.609375 355.644531 243.675781 355.644531 243.761719 L 355.644531 243.910156 L 351.347656 243.910156 L 351.347656 243.761719 C 351.347656 243.675781 351.277344 243.609375 351.195312 243.609375 L 349.988281 243.609375 C 349.90625 243.609375 349.839844 243.675781 349.839844 243.761719 L 349.839844 243.910156 L 345.542969 243.910156 L 345.542969 243.761719 C 345.542969 243.675781 345.476562 243.609375 345.394531 243.609375 L 344.183594 243.609375 C 344.101562 243.609375 344.039062 243.675781 344.039062 243.761719 L 344.039062 243.910156 L 339.738281 243.910156 L 339.738281 243.761719 C 339.738281 243.675781 339.675781 243.609375 339.589844 243.609375 L 338.382812 243.609375 C 338.300781 243.609375 338.230469 243.675781 338.230469 243.761719 L 338.230469 243.910156 L 329.457031 243.910156 L 329.894531 245.550781 L 391.199219 245.550781 C 394.785156 245.550781 397.714844 248.480469 397.714844 252.0625 C 397.714844 255.644531 394.785156 258.574219 391.199219 258.574219 L 333.351562 258.574219 L 333.789062 260.210938 L 338.226562 260.210938 L 338.226562 260.363281 C 338.226562 260.445312 338.296875 260.515625 338.378906 260.515625 L 339.585938 260.515625 C 339.671875 260.515625 339.734375 260.445312 339.734375 260.363281 L 339.734375 260.210938 L 344.035156 260.210938 L 344.035156 260.363281 C 344.035156 260.445312 344.097656 260.515625 344.179688 260.515625 L 345.394531 260.515625 C 345.472656 260.515625 345.539062 260.445312 345.539062 260.363281 L 345.539062 260.210938 L 349.835938 260.210938 L 349.835938 260.363281 C 349.835938 260.445312 349.90625 260.515625 349.988281 260.515625 L 351.195312 260.515625 C 351.277344 260.515625 351.347656 260.445312 351.347656 260.363281 L 351.347656 260.210938 L 355.640625 260.210938 L 355.640625 260.363281 C 355.640625 260.445312 355.707031 260.515625 355.789062 260.515625 L 357 260.515625 C 357.082031 260.515625 357.152344 260.445312 357.152344 260.363281 L 357.152344 260.210938 L 361.445312 260.210938 L 361.445312 260.363281 C 361.445312 260.445312 361.511719 260.515625 361.597656 260.515625 L 362.804688 260.515625 C 362.886719 260.515625 362.957031 260.445312 362.957031 260.363281 L 362.957031 260.210938 L 367.253906 260.210938 L 367.253906 260.363281 C 367.253906 260.445312 367.320312 260.515625 367.402344 260.515625 L 368.609375 260.515625 C 368.695312 260.515625 368.757812 260.445312 368.757812 260.363281 L 368.757812 260.210938 L 373.058594 260.210938 L 373.058594 260.363281 C 373.058594 260.445312 373.125 260.515625 373.207031 260.515625 L 374.414062 260.515625 C 374.5 260.515625 374.566406 260.445312 374.566406 260.363281 L 374.566406 260.210938 L 378.863281 260.210938 L 378.863281 260.363281 C 378.863281 260.445312 378.929688 260.515625 379.011719 260.515625 L 380.222656 260.515625 C 380.304688 260.515625 380.371094 260.445312 380.371094 260.363281 L 380.371094 260.210938 L 384.667969 260.210938 L 384.667969 260.363281 C 384.667969 260.445312 384.734375 260.515625 384.816406 260.515625 L 386.027344 260.515625 C 386.109375 260.515625 386.171875 260.445312 386.171875 260.363281 L 386.171875 260.210938 L 390.480469 260.210938 L 390.480469 260.363281 C 390.480469 260.445312 390.546875 260.515625 390.625 260.515625 L 391.839844 260.515625 C 391.917969 260.515625 391.984375 260.445312 391.984375 260.363281 L 391.984375 260.171875 C 393.660156 260.007812 395.191406 259.332031 396.414062 258.304688 L 396.574219 258.464844 C 396.632812 258.523438 396.722656 258.523438 396.78125 258.464844 L 397.636719 257.609375 C 397.695312 257.550781 397.695312 257.457031 397.636719 257.398438 L 397.472656 257.238281 C 398.488281 256.011719 399.152344 254.488281 399.308594 252.816406 L 399.535156 252.816406 C 399.617188 252.816406 399.683594 252.75 399.683594 252.667969 L 399.683594 251.460938 C 399.683594 251.378906 399.617188 251.3125 399.535156 251.3125 L 399.308594 251.3125 C 399.152344 249.644531 398.488281 248.117188 397.472656 246.890625 L 397.636719 246.730469 C 397.695312 246.671875 397.695312 246.578125 397.636719 246.519531 L 396.78125 245.667969 C 396.722656 245.613281 396.632812 245.613281 396.574219 245.667969 L 396.414062 245.824219 C 395.1875 244.800781 393.660156 244.121094 391.984375 243.957031 L 391.984375 243.769531 C 391.984375 243.683594 391.917969 243.617188 391.839844 243.617188 L 390.625 243.617188 C 390.546875 243.617188 390.480469 243.683594 390.480469 243.769531 Z M 144.410156 243.910156 L 141.773438 243.910156 L 141.773438 243.761719 C 141.773438 243.675781 141.707031 243.609375 141.625 243.609375 L 140.414062 243.609375 C 140.332031 243.609375 140.265625 243.679688 140.265625 243.761719 L 140.265625 243.910156 L 135.964844 243.910156 L 135.964844 243.761719 C 135.964844 243.675781 135.902344 243.609375 135.820312 243.609375 L 134.613281 243.609375 C 134.527344 243.609375 134.460938 243.679688 134.460938 243.761719 L 134.460938 243.910156 L 130.164062 243.910156 L 130.164062 243.761719 C 130.164062 243.675781 130.097656 243.609375 130.015625 243.609375 L 128.804688 243.609375 C 128.726562 243.609375 128.65625 243.679688 128.65625 243.761719 L 128.65625 243.910156 L 124.359375 243.910156 L 124.359375 243.738281 L 124.355469 243.738281 L 124.355469 243.71875 L 124.351562 243.714844 L 124.351562 243.707031 L 124.347656 243.703125 L 124.347656 243.699219 L 124.34375 243.695312 L 124.34375 243.691406 L 124.339844 243.6875 L 124.339844 243.679688 L 124.335938 243.675781 L 124.335938 243.671875 L 124.332031 243.667969 L 124.328125 243.667969 L 124.328125 243.664062 L 124.320312 243.65625 L 124.320312 243.652344 L 124.316406 243.652344 L 124.316406 243.648438 L 124.3125 243.648438 L 124.308594 243.640625 L 124.300781 243.640625 L 124.300781 243.636719 L 124.292969 243.632812 L 124.292969 243.628906 L 124.285156 243.628906 L 124.285156 243.625 L 124.28125 243.625 L 124.277344 243.621094 L 124.269531 243.621094 L 124.269531 243.617188 L 124.261719 243.617188 L 124.253906 243.613281 L 124.253906 243.609375 L 124.246094 243.609375 L 124.242188 243.605469 L 124.222656 243.605469 L 124.21875 243.601562 L 122.996094 243.601562 C 122.914062 243.601562 122.84375 243.671875 122.84375 243.753906 L 122.84375 243.941406 C 121.171875 244.105469 119.640625 244.785156 118.421875 245.808594 L 118.257812 245.652344 C 118.203125 245.597656 118.105469 245.597656 118.050781 245.652344 L 117.195312 246.503906 C 117.136719 246.5625 117.136719 246.65625 117.195312 246.714844 L 117.355469 246.875 C 116.34375 248.105469 115.679688 249.632812 115.523438 251.296875 L 115.296875 251.296875 C 115.214844 251.296875 115.148438 251.363281 115.148438 251.445312 L 115.148438 252.652344 C 115.148438 252.734375 115.21875 252.800781 115.296875 252.800781 L 115.523438 252.800781 C 115.679688 254.472656 116.34375 255.996094 117.355469 257.222656 L 117.195312 257.382812 C 117.136719 257.441406 117.136719 257.535156 117.195312 257.589844 L 118.050781 258.449219 C 118.105469 258.503906 118.203125 258.507812 118.257812 258.449219 L 118.421875 258.289062 C 119.640625 259.316406 121.171875 259.996094 122.84375 260.15625 L 122.84375 260.347656 C 122.84375 260.429688 122.914062 260.496094 122.996094 260.496094 L 124.230469 260.496094 L 124.230469 260.492188 L 124.246094 260.492188 L 124.25 260.488281 L 124.257812 260.488281 L 124.265625 260.480469 L 124.269531 260.480469 L 124.277344 260.476562 L 124.28125 260.476562 L 124.285156 260.472656 L 124.289062 260.472656 L 124.292969 260.46875 L 124.296875 260.46875 L 124.296875 260.464844 L 124.304688 260.464844 L 124.304688 260.457031 L 124.308594 260.457031 L 124.316406 260.449219 L 124.320312 260.449219 L 124.320312 260.445312 L 124.324219 260.4375 L 124.328125 260.4375 L 124.328125 260.433594 L 124.335938 260.425781 L 124.335938 260.421875 L 124.339844 260.421875 L 124.34375 260.414062 L 124.34375 260.410156 L 124.347656 260.410156 L 124.347656 260.402344 L 124.351562 260.402344 L 124.351562 260.398438 L 124.355469 260.394531 L 124.355469 260.378906 L 124.359375 260.375 L 124.359375 260.191406 L 128.65625 260.191406 L 128.65625 260.339844 C 128.65625 260.421875 128.722656 260.488281 128.808594 260.488281 L 130.015625 260.488281 C 130.097656 260.488281 130.164062 260.421875 130.164062 260.339844 L 130.164062 260.191406 L 134.460938 260.191406 L 134.460938 260.339844 C 134.460938 260.421875 134.527344 260.488281 134.613281 260.488281 L 135.820312 260.488281 C 135.898438 260.488281 135.96875 260.421875 135.96875 260.339844 L 135.96875 260.191406 L 140.265625 260.191406 L 140.265625 260.339844 C 140.265625 260.421875 140.332031 260.488281 140.410156 260.488281 L 141.621094 260.488281 C 141.703125 260.488281 141.769531 260.421875 141.769531 260.339844 L 141.769531 260.191406 L 146.070312 260.191406 L 146.070312 260.339844 C 146.070312 260.421875 146.136719 260.488281 146.21875 260.488281 L 147.425781 260.488281 C 147.507812 260.488281 147.574219 260.421875 147.574219 260.339844 L 147.574219 260.191406 L 148.746094 260.191406 L 148.304688 258.546875 L 123.640625 258.546875 C 120.054688 258.546875 117.121094 255.617188 117.121094 252.039062 C 117.121094 248.457031 120.054688 245.527344 123.640625 245.527344 L 144.84375 245.527344 Z M 123.003906 246.492188 C 122.554688 246.554688 122.128906 246.675781 121.722656 246.832031 L 121.546875 246.527344 C 121.496094 246.441406 121.382812 246.414062 121.300781 246.460938 L 120.214844 247.089844 C 120.128906 247.136719 120.09375 247.25 120.144531 247.335938 L 120.324219 247.640625 C 119.976562 247.914062 119.664062 248.230469 119.386719 248.574219 L 119.082031 248.398438 C 118.996094 248.347656 118.886719 248.378906 118.832031 248.460938 L 118.210938 249.546875 C 118.160156 249.636719 118.191406 249.746094 118.273438 249.796875 L 118.582031 249.972656 C 118.421875 250.378906 118.304688 250.808594 118.238281 251.253906 L 117.882812 251.253906 C 117.785156 251.253906 117.699219 251.332031 117.699219 251.4375 L 117.699219 252.6875 C 117.699219 252.785156 117.785156 252.863281 117.882812 252.863281 L 118.238281 252.863281 C 118.304688 253.308594 118.421875 253.738281 118.582031 254.144531 L 118.273438 254.324219 C 118.191406 254.371094 118.15625 254.484375 118.210938 254.570312 L 118.832031 255.65625 C 118.886719 255.738281 118.996094 255.769531 119.082031 255.722656 L 119.386719 255.542969 C 119.664062 255.886719 119.976562 256.203125 120.324219 256.472656 L 120.144531 256.78125 C 120.097656 256.867188 120.128906 256.984375 120.214844 257.03125 L 121.300781 257.660156 C 121.382812 257.707031 121.5 257.671875 121.546875 257.589844 L 121.722656 257.28125 C 122.128906 257.445312 122.558594 257.558594 123.003906 257.625 L 123.003906 257.980469 C 123.003906 258.082031 123.085938 258.164062 123.183594 258.164062 L 124.433594 258.164062 C 124.535156 258.164062 124.617188 258.082031 124.617188 257.980469 L 124.617188 257.625 C 125.0625 257.558594 125.492188 257.445312 125.894531 257.28125 L 126.070312 257.589844 C 126.121094 257.671875 126.234375 257.707031 126.324219 257.660156 L 127.40625 257.03125 C 127.492188 256.980469 127.523438 256.867188 127.476562 256.78125 L 127.296875 256.472656 C 127.644531 256.199219 127.957031 255.886719 128.230469 255.542969 L 128.535156 255.722656 C 128.625 255.769531 128.738281 255.738281 128.785156 255.65625 L 129.410156 254.570312 C 129.460938 254.484375 129.429688 254.371094 129.347656 254.324219 L 129.035156 254.144531 C 129.199219 253.738281 129.320312 253.308594 129.378906 252.863281 L 129.738281 252.863281 C 129.835938 252.863281 129.921875 252.785156 129.921875 252.6875 L 129.921875 251.4375 C 129.921875 251.332031 129.835938 251.253906 129.738281 251.253906 L 129.378906 251.253906 C 129.316406 250.808594 129.199219 250.378906 129.035156 249.972656 L 129.347656 249.796875 C 129.429688 249.746094 129.464844 249.636719 129.410156 249.546875 L 128.785156 248.460938 C 128.738281 248.378906 128.625 248.347656 128.535156 248.398438 L 128.230469 248.574219 C 127.957031 248.230469 127.644531 247.914062 127.296875 247.640625 L 127.476562 247.335938 C 127.519531 247.25 127.492188 247.136719 127.40625 247.089844 L 126.324219 246.460938 C 126.234375 246.417969 126.121094 246.441406 126.070312 246.527344 L 125.894531 246.832031 C 125.492188 246.675781 125.0625 246.554688 124.617188 246.492188 L 124.617188 246.136719 C 124.617188 246.035156 124.535156 245.957031 124.433594 245.957031 L 123.183594 245.957031 C 123.085938 245.957031 123.003906 246.039062 123.003906 246.136719 Z M 349.785156 246.492188 C 349.335938 246.554688 348.910156 246.675781 348.503906 246.832031 L 348.324219 246.527344 C 348.277344 246.441406 348.164062 246.410156 348.078125 246.460938 L 346.992188 247.089844 C 346.90625 247.136719 346.875 247.25 346.929688 247.335938 L 347.105469 247.640625 C 346.757812 247.914062 346.441406 248.230469 346.171875 248.574219 L 345.863281 248.398438 C 345.773438 248.347656 345.664062 248.378906 345.613281 248.460938 L 344.988281 249.546875 C 344.9375 249.636719 344.96875 249.746094 345.058594 249.796875 L 345.363281 249.972656 C 345.203125 250.378906 345.085938 250.808594 345.019531 251.253906 L 344.664062 251.253906 C 344.566406 251.253906 344.484375 251.332031 344.484375 251.4375 L 344.484375 252.6875 C 344.484375 252.785156 344.566406 252.863281 344.664062 252.863281 L 345.019531 252.863281 C 345.085938 253.308594 345.199219 253.738281 345.363281 254.144531 L 345.058594 254.324219 C 344.96875 254.371094 344.9375 254.484375 344.988281 254.570312 L 345.613281 255.65625 C 345.664062 255.738281 345.773438 255.769531 345.863281 255.722656 L 346.171875 255.542969 C 346.445312 255.886719 346.757812 256.203125 347.105469 256.472656 L 346.929688 256.78125 C 346.878906 256.867188 346.902344 256.980469 346.992188 257.03125 L 348.078125 257.660156 C 348.167969 257.707031 348.277344 257.671875 348.324219 257.589844 L 348.503906 257.28125 C 348.910156 257.445312 349.335938 257.558594 349.785156 257.625 L 349.785156 257.980469 C 349.785156 258.082031 349.863281 258.164062 349.964844 258.164062 L 351.21875 258.164062 C 351.320312 258.164062 351.402344 258.082031 351.402344 257.980469 L 351.402344 257.625 C 351.847656 257.558594 352.273438 257.445312 352.679688 257.28125 L 352.855469 257.589844 C 352.90625 257.671875 353.019531 257.707031 353.105469 257.660156 L 354.191406 257.03125 C 354.273438 256.980469 354.308594 256.867188 354.253906 256.78125 L 354.078125 256.472656 C 354.429688 256.199219 354.738281 255.886719 355.011719 255.542969 L 355.320312 255.722656 C 355.40625 255.769531 355.519531 255.738281 355.570312 255.65625 L 356.195312 254.570312 C 356.246094 254.484375 356.21875 254.371094 356.128906 254.324219 L 355.820312 254.144531 C 355.984375 253.738281 356.101562 253.308594 356.164062 252.863281 L 356.519531 252.863281 C 356.621094 252.863281 356.703125 252.785156 356.703125 252.6875 L 356.703125 251.4375 C 356.703125 251.332031 356.621094 251.253906 356.519531 251.253906 L 356.164062 251.253906 C 356.101562 250.808594 355.984375 250.378906 355.820312 249.972656 L 356.128906 249.796875 C 356.21875 249.746094 356.246094 249.636719 356.195312 249.546875 L 355.570312 248.460938 C 355.519531 248.378906 355.40625 248.347656 355.320312 248.398438 L 355.011719 248.574219 C 354.738281 248.230469 354.425781 247.914062 354.078125 247.640625 L 354.253906 247.335938 C 354.304688 247.25 354.277344 247.136719 354.191406 247.089844 L 353.105469 246.460938 C 353.019531 246.410156 352.90625 246.441406 352.855469 246.527344 L 352.679688 246.832031 C 352.273438 246.675781 351.847656 246.554688 351.402344 246.492188 L 351.402344 246.136719 C 351.402344 246.035156 351.320312 245.957031 351.21875 245.957031 L 349.964844 245.957031 C 349.863281 245.957031 349.785156 246.039062 349.785156 246.136719 Z M 390.3125 246.492188 C 389.867188 246.554688 389.4375 246.675781 389.035156 246.832031 L 388.855469 246.527344 C 388.808594 246.441406 388.695312 246.410156 388.609375 246.460938 L 387.523438 247.089844 C 387.433594 247.136719 387.40625 247.25 387.457031 247.335938 L 387.636719 247.640625 C 387.289062 247.914062 386.972656 248.230469 386.703125 248.574219 L 386.394531 248.398438 C 386.304688 248.347656 386.195312 248.378906 386.144531 248.460938 L 385.515625 249.546875 C 385.46875 249.636719 385.496094 249.746094 385.585938 249.796875 L 385.890625 249.972656 C 385.730469 250.378906 385.613281 250.808594 385.546875 251.253906 L 385.191406 251.253906 C 385.09375 251.253906 385.011719 251.332031 385.011719 251.4375 L 385.011719 252.6875 C 385.011719 252.785156 385.09375 252.863281 385.191406 252.863281 L 385.546875 252.863281 C 385.613281 253.308594 385.726562 253.738281 385.890625 254.144531 L 385.585938 254.324219 C 385.496094 254.371094 385.46875 254.484375 385.515625 254.570312 L 386.144531 255.65625 C 386.195312 255.738281 386.304688 255.769531 386.394531 255.722656 L 386.703125 255.542969 C 386.976562 255.886719 387.289062 256.203125 387.636719 256.472656 L 387.457031 256.78125 C 387.40625 256.867188 387.433594 256.980469 387.523438 257.03125 L 388.609375 257.660156 C 388.695312 257.707031 388.808594 257.671875 388.855469 257.589844 L 389.035156 257.28125 C 389.4375 257.445312 389.867188 257.558594 390.3125 257.625 L 390.3125 257.980469 C 390.3125 258.082031 390.394531 258.164062 390.492188 258.164062 L 391.746094 258.164062 C 391.847656 258.164062 391.929688 258.082031 391.929688 257.980469 L 391.929688 257.625 C 392.375 257.558594 392.800781 257.445312 393.207031 257.28125 L 393.382812 257.589844 C 393.433594 257.671875 393.546875 257.707031 393.632812 257.660156 L 394.71875 257.03125 C 394.804688 256.980469 394.835938 256.867188 394.785156 256.78125 L 394.605469 256.472656 C 394.953125 256.199219 395.265625 255.886719 395.542969 255.542969 L 395.847656 255.722656 C 395.933594 255.769531 396.046875 255.738281 396.097656 255.65625 L 396.722656 254.570312 C 396.773438 254.484375 396.746094 254.371094 396.65625 254.324219 L 396.351562 254.144531 C 396.511719 253.738281 396.628906 253.308594 396.695312 252.863281 L 397.046875 252.863281 C 397.148438 252.863281 397.230469 252.785156 397.230469 252.6875 L 397.230469 251.4375 C 397.230469 251.332031 397.148438 251.253906 397.046875 251.253906 L 396.695312 251.253906 C 396.628906 250.808594 396.511719 250.378906 396.351562 249.972656 L 396.65625 249.796875 C 396.746094 249.746094 396.773438 249.636719 396.722656 249.546875 L 396.097656 248.460938 C 396.050781 248.378906 395.9375 248.347656 395.847656 248.398438 L 395.542969 248.574219 C 395.265625 248.230469 394.953125 247.914062 394.609375 247.640625 L 394.785156 247.335938 C 394.832031 247.25 394.804688 247.136719 394.71875 247.089844 L 393.632812 246.460938 C 393.546875 246.410156 393.433594 246.441406 393.386719 246.527344 L 393.207031 246.832031 C 392.800781 246.675781 392.375 246.554688 391.929688 246.492188 L 391.929688 246.136719 C 391.929688 246.035156 391.847656 245.957031 391.746094 245.957031 L 390.496094 245.957031 C 390.394531 245.957031 390.3125 246.039062 390.3125 246.136719 Z M 390.3125 246.492188 " fill-opacity="1" fill-rule="nonzero"/></g><g clip-path="url(#c687d4dd8f)"><path fill="#000000" d="M 381.175781 190.742188 L 103.363281 190.742188 L 101.578125 183.625 Z M 51.84375 213.117188 L 42.039062 196.277344 L 58.917969 196.277344 L 62.496094 202.710938 Z M 128.445312 92.152344 C 127.082031 92.152344 125.972656 93.253906 125.972656 94.621094 C 125.972656 95.988281 127.078125 97.09375 128.445312 97.09375 C 129.8125 97.09375 130.921875 95.988281 130.921875 94.621094 C 130.921875 93.253906 129.8125 92.152344 128.445312 92.152344 Z M 52.816406 215.507812 C 51.875 215.507812 51.113281 216.273438 51.113281 217.214844 C 51.113281 218.152344 51.875 218.917969 52.816406 218.917969 C 53.753906 218.917969 54.519531 218.152344 54.519531 217.214844 C 54.519531 216.269531 53.757812 215.507812 52.816406 215.507812 Z M 52.816406 216.035156 C 52.164062 216.035156 51.636719 216.5625 51.636719 217.210938 C 51.636719 217.863281 52.164062 218.390625 52.816406 218.390625 C 53.46875 218.390625 53.996094 217.863281 53.996094 217.210938 C 53.996094 216.5625 53.46875 216.035156 52.816406 216.035156 Z M 63.925781 206.90625 C 62.097656 206.90625 60.609375 208.386719 60.609375 210.222656 C 60.609375 212.054688 62.097656 213.535156 63.925781 213.535156 C 65.757812 213.535156 67.246094 212.054688 67.246094 210.222656 C 67.246094 208.386719 65.761719 206.90625 63.925781 206.90625 Z M 63.925781 207.925781 C 62.65625 207.925781 61.625 208.949219 61.625 210.21875 C 61.625 211.492188 62.65625 212.515625 63.925781 212.515625 C 65.199219 212.515625 66.226562 211.492188 66.226562 210.21875 C 66.226562 208.949219 65.199219 207.925781 63.925781 207.925781 Z M 32.179688 107.007812 C 29.714844 107.007812 27.714844 109.003906 27.714844 111.46875 C 27.714844 113.9375 29.714844 115.929688 32.179688 115.929688 C 34.648438 115.929688 36.644531 113.933594 36.644531 111.46875 C 36.644531 109.003906 34.644531 107.007812 32.179688 107.007812 Z M 32.179688 108.378906 C 30.472656 108.378906 29.085938 109.765625 29.085938 111.46875 C 29.085938 113.175781 30.472656 114.558594 32.179688 114.558594 C 33.886719 114.558594 35.273438 113.175781 35.273438 111.46875 C 35.273438 109.765625 33.886719 108.378906 32.179688 108.378906 Z M 22.53125 93.363281 C 21.707031 93.363281 21.039062 94.03125 21.039062 94.855469 C 21.039062 95.675781 21.707031 96.34375 22.53125 96.34375 C 23.355469 96.34375 24.023438 95.675781 24.023438 94.855469 C 24.019531 94.03125 23.355469 93.363281 22.53125 93.363281 Z M 22.53125 93.820312 C 21.960938 93.820312 21.5 94.285156 21.5 94.855469 C 21.5 95.425781 21.960938 95.882812 22.53125 95.882812 C 23.101562 95.882812 23.5625 95.421875 23.5625 94.855469 C 23.5625 94.285156 23.101562 93.820312 22.53125 93.820312 Z M 128.445312 92.910156 C 127.5 92.910156 126.730469 93.679688 126.730469 94.625 C 126.730469 95.570312 127.5 96.335938 128.445312 96.335938 C 129.394531 96.335938 130.164062 95.570312 130.164062 94.625 C 130.164062 93.675781 129.394531 92.910156 128.445312 92.910156 Z M 38.035156 192.058594 C 37.332031 192.558594 36.871094 193.378906 36.871094 194.304688 C 36.871094 195.683594 37.886719 196.824219 39.210938 197.019531 L 49.757812 215.144531 L 45.132812 219.660156 L 55.332031 222.175781 C 55.332031 222.175781 45.980469 232.230469 48.316406 241.710938 C 50.644531 251.191406 60.863281 259.992188 93.835938 245.210938 L 117.789062 235.800781 L 99.265625 233.367188 L 98.433594 235.914062 C 98.433594 235.914062 78.667969 228.734375 69.402344 215.953125 C 69.402344 215.953125 72.542969 205.402344 70.648438 200.6875 C 69 196.589844 51.800781 134.496094 47.300781 118.207031 L 54.382812 118.226562 L 53.941406 116.027344 L 86.269531 114.558594 C 86.269531 114.558594 123.878906 111.355469 135.234375 114.894531 L 139.230469 123.792969 L 138.808594 123.980469 C 138.492188 124.121094 138.34375 124.507812 138.488281 124.828125 L 140.792969 129.96875 C 140.90625 130.210938 141.148438 130.355469 141.398438 130.347656 L 151.511719 152.886719 L 151.53125 142.613281 L 145.25 128.625 C 145.421875 128.4375 145.476562 128.164062 145.371094 127.921875 L 143.0625 122.78125 C 142.914062 122.460938 142.53125 122.316406 142.210938 122.460938 L 141.796875 122.648438 L 138.859375 116.113281 C 143.363281 117.695312 149.460938 120.042969 155.855469 122.660156 C 158.742188 116.90625 162.964844 111.96875 168.910156 108.597656 C 169.910156 108.03125 171.019531 107.488281 172.199219 106.992188 C 156.867188 92.367188 146.4375 80.441406 119.542969 84.617188 L 119.484375 83.996094 C 119.445312 83.609375 119.105469 83.324219 118.71875 83.363281 L 81.394531 86.867188 C 81.277344 86.644531 81.03125 86.503906 80.769531 86.527344 L 75.15625 87.054688 C 74.800781 87.089844 74.542969 87.402344 74.574219 87.753906 L 74.617188 88.207031 L 25.230469 92.957031 L 25.195312 92.925781 C 25.195312 92.925781 21.503906 88.015625 18.777344 93.777344 L 14.308594 116.023438 L 19.207031 124.832031 L 28.472656 158.925781 C 28.324219 159.042969 28.246094 159.246094 28.296875 159.445312 L 29.429688 163.605469 C 29.496094 163.867188 29.773438 164.019531 30.03125 163.953125 L 30.371094 163.859375 Z M 41.625 192.429688 C 41.234375 192.019531 40.71875 191.722656 40.140625 191.613281 L 32.445312 163.292969 L 32.785156 163.203125 C 33.046875 163.132812 33.203125 162.859375 33.128906 162.601562 L 32 158.4375 C 31.949219 158.242188 31.78125 158.101562 31.589844 158.082031 L 25.757812 136.613281 L 56.785156 192.425781 L 41.625 192.425781 Z M 92.238281 90.078125 C 71.914062 94.738281 50.8125 100.582031 36.726562 104.65625 L 27.765625 95.539062 L 74.878906 91.003906 L 74.921875 91.457031 C 74.957031 91.808594 75.269531 92.066406 75.625 92.035156 L 81.234375 91.507812 C 81.5 91.484375 81.714844 91.300781 81.789062 91.058594 Z M 217.171875 138.441406 L 217.171875 116.382812 C 217.171875 116.382812 217.390625 108.113281 208.101562 108.070312 C 198.8125 108.027344 182.609375 108.027344 182.609375 108.027344 C 182.609375 108.027344 160.007812 107.851562 154.921875 136.566406 L 154.878906 168.691406 C 154.878906 168.691406 156.371094 176.21875 163.550781 176.480469 C 170.734375 176.742188 291.726562 176.832031 291.726562 176.832031 C 291.726562 176.832031 299.765625 177.621094 299.851562 166.679688 C 299.882812 162.871094 300.023438 152.046875 299.875 148.210938 C 299.613281 141.59375 296.964844 138.316406 288.394531 138.316406 L 288.21875 138.316406 L 288.21875 127.382812 L 292.507812 127.382812 L 294.589844 122.28125 L 287.210938 122.28125 C 285.1875 122.28125 283.53125 123.933594 283.53125 125.957031 L 283.53125 138.316406 Z M 207.722656 122.316406 L 207.523438 147.042969 C 199.0625 147.234375 185.027344 147.742188 176.664062 166.648438 C 176.664062 166.648438 181.351562 144.808594 204.480469 143.671875 C 205.265625 137.722656 206.671875 128.054688 207.722656 122.316406 Z M 233.242188 185.519531 L 179.242188 183.933594 C 178.820312 183.917969 178.472656 183.582031 178.472656 183.164062 L 178.472656 178.691406 C 178.472656 178.269531 178.820312 177.925781 179.242188 177.925781 L 233.242188 177.925781 C 233.660156 177.925781 234.011719 178.269531 234.011719 178.691406 L 234.011719 184.75 C 234.007812 185.171875 233.660156 185.523438 233.242188 185.519531 Z M 243.273438 131.226562 L 277.707031 131.226562 C 279.632812 131.226562 281.210938 132.804688 281.210938 134.730469 L 281.210938 136.785156 C 271.339844 136.796875 253.097656 136.835938 239.773438 136.871094 L 239.773438 134.730469 C 239.769531 132.804688 241.347656 131.226562 243.273438 131.226562 Z M 291.914062 142.933594 L 265.574219 142.933594 C 264.792969 142.933594 264.160156 143.570312 264.160156 144.351562 L 264.160156 145.933594 C 264.160156 146.710938 264.792969 147.351562 265.574219 147.351562 L 291.914062 147.351562 C 292.695312 147.351562 293.332031 146.714844 293.332031 145.933594 L 293.332031 144.351562 C 293.335938 143.570312 292.695312 142.933594 291.914062 142.933594 Z M 291.914062 156.414062 L 265.574219 156.414062 C 264.792969 156.414062 264.160156 157.050781 264.160156 157.832031 L 264.160156 159.414062 C 264.160156 160.191406 264.792969 160.828125 265.574219 160.828125 L 291.914062 160.828125 C 292.695312 160.828125 293.332031 160.195312 293.332031 159.414062 L 293.332031 157.832031 C 293.335938 157.050781 292.695312 156.414062 291.914062 156.414062 Z M 291.914062 149.675781 L 265.574219 149.675781 C 264.792969 149.675781 264.160156 150.3125 264.160156 151.09375 L 264.160156 152.671875 C 264.160156 153.453125 264.792969 154.089844 265.574219 154.089844 L 291.914062 154.089844 C 292.695312 154.089844 293.332031 153.453125 293.332031 152.671875 L 293.332031 151.09375 C 293.335938 150.3125 292.695312 149.675781 291.914062 149.675781 Z M 210.734375 149.449219 C 201.359375 149.449219 185.804688 150.621094 178.355469 170.207031 C 173.496094 170.214844 168.582031 170.226562 163.789062 170.050781 C 162.488281 170.003906 161.707031 168.992188 161.320312 167.847656 L 161.363281 137.152344 C 162.871094 129.117188 166.394531 121.304688 173.78125 117.125 C 176.054688 115.839844 179.894531 114.449219 182.578125 114.460938 C 191.074219 114.5 199.574219 114.464844 208.074219 114.503906 C 209.59375 114.511719 210.671875 114.691406 210.734375 116.332031 Z M 210.734375 149.449219 " fill-opacity="1" fill-rule="nonzero"/></g><path fill="#000000" d="M 120.464844 90.550781 C 120.664062 90.519531 120.855469 90.488281 121.050781 90.460938 C 120.355469 91.691406 119.960938 93.109375 119.960938 94.621094 C 119.960938 99.304688 123.765625 103.101562 128.445312 103.101562 C 128.550781 103.101562 128.65625 103.097656 128.761719 103.097656 L 131.394531 109.105469 C 102.953125 104.175781 70.898438 108.039062 42.59375 110.300781 C 42.242188 110.328125 42.5 109.609375 42.425781 109.269531 C 77.660156 99.183594 92.824219 94.84375 120.464844 90.550781 Z M 133.75 101.242188 C 135.6875 99.683594 136.933594 97.296875 136.933594 94.625 C 136.933594 92.992188 136.476562 91.472656 135.679688 90.179688 C 146.367188 91.71875 153.492188 97.523438 162.230469 105.78125 C 158.710938 108.375 155.738281 111.53125 153.296875 115.140625 C 148.304688 113.148438 143.105469 111.585938 137.75 110.375 Z M 133.75 101.242188 " fill-opacity="1" fill-rule="nonzero"/><path fill="#000000" d="M 297.957031 166.0625 C 297.957031 166.0625 298.609375 174.210938 292.351562 174.9375 L 180.324219 174.574219 L 291.578125 172.417969 C 291.578125 172.417969 295.699219 172.683594 297.957031 166.0625 " fill-opacity="1" fill-rule="nonzero"/><path fill="#000000" d="M 18.851562 102.863281 L 16.195312 115.847656 L 60.816406 193.589844 L 20.484375 116.269531 Z M 18.851562 102.863281 " fill-opacity="1" fill-rule="nonzero"/><g clip-path="url(#4ba5f8cfb7)"><path fill="#ffffff" d="M 113.644531 242.425781 L 399.6875 242.425781 L 399.6875 267.460938 L 113.644531 267.460938 Z M 113.644531 242.425781 " fill-opacity="1" fill-rule="nonzero"/></g><g fill="#000000" fill-opacity="1"><g transform="translate(127.466231, 264.644326)"><g><path d="M 22.015625 -16.375 L 28.078125 -56.46875 L 40.421875 -56.46875 L 40.421875 0 L 32.03125 0 L 32.03125 -40.5 L 25.890625 0 L 17.5 0 L 10.890625 -39.9375 L 10.890625 0 L 3.140625 0 L 3.140625 -56.46875 L 15.484375 -56.46875 Z M 22.015625 -16.375 "/></g></g></g><g fill="#000000" fill-opacity="1"><g transform="translate(168.684793, 264.644326)"><g><path d="M 31.953125 0 L 22.984375 0 L 21.453125 -10.25 L 10.5625 -10.25 L 9.03125 0 L 0.890625 0 L 9.921875 -56.46875 L 22.90625 -56.46875 Z M 11.703125 -17.90625 L 20.25 -17.90625 L 15.96875 -46.46875 Z M 11.703125 -17.90625 "/></g></g></g><g fill="#000000" fill-opacity="1"><g transform="translate(199.094529, 264.644326)"><g><path d="M 11.125 -40.90625 L 11.125 0 L 3.140625 0 L 3.140625 -56.46875 L 14.28125 -56.46875 L 23.390625 -22.671875 L 23.390625 -56.46875 L 31.296875 -56.46875 L 31.296875 0 L 22.1875 0 Z M 11.125 -40.90625 "/></g></g></g><g fill="#000000" fill-opacity="1"><g transform="translate(231.11752, 264.644326)"><g><path d="M 31.953125 0 L 22.984375 0 L 21.453125 -10.25 L 10.5625 -10.25 L 9.03125 0 L 0.890625 0 L 9.921875 -56.46875 L 22.90625 -56.46875 Z M 11.703125 -17.90625 L 20.25 -17.90625 L 15.96875 -46.46875 Z M 11.703125 -17.90625 "/></g></g></g><g fill="#000000" fill-opacity="1"><g transform="translate(261.527259, 264.644326)"><g><path d="M 0.8125 -8.0625 C 1.289062 -8.007812 1.796875 -7.984375 2.328125 -7.984375 C 2.867188 -7.984375 3.382812 -7.984375 3.875 -7.984375 C 5.269531 -7.984375 6.460938 -8.332031 7.453125 -9.03125 C 8.453125 -9.726562 8.953125 -11.179688 8.953125 -13.390625 L 8.953125 -56.46875 L 17.828125 -56.46875 L 17.828125 -14.03125 C 17.828125 -11.1875 17.476562 -8.847656 16.78125 -7.015625 C 16.082031 -5.191406 15.140625 -3.753906 13.953125 -2.703125 C 12.773438 -1.648438 11.414062 -0.910156 9.875 -0.484375 C 8.34375 -0.0546875 6.742188 0.15625 5.078125 0.15625 C 4.273438 0.15625 3.550781 0.15625 2.90625 0.15625 C 2.257812 0.15625 1.5625 0.101562 0.8125 0 Z M 0.8125 -8.0625 "/></g></g></g><g fill="#000000" fill-opacity="1"><g transform="translate(279.75689, 264.644326)"><g><path d="M 3.234375 -56.46875 L 12.09375 -56.46875 L 12.09375 0 L 3.234375 0 Z M 3.234375 -56.46875 "/></g></g></g><g fill="#000000" fill-opacity="1"><g transform="translate(292.662777, 264.644326)"><g><path d="M 22.015625 -16.375 L 28.078125 -56.46875 L 40.421875 -56.46875 L 40.421875 0 L 32.03125 0 L 32.03125 -40.5 L 25.890625 0 L 17.5 0 L 10.890625 -39.9375 L 10.890625 0 L 3.140625 0 L 3.140625 -56.46875 L 15.484375 -56.46875 Z M 22.015625 -16.375 "/></g></g></g></svg>